<?xml version="1.0" standalone="no"?>
<!DOCTYPE svg PUBLIC "-//W3C//DTD SVG 20010904//EN"
 "http://www.w3.org/TR/2001/REC-SVG-20010904/DTD/svg10.dtd">
<svg version="1.0" xmlns="http://www.w3.org/2000/svg"
 width="178.000000pt" height="178.000000pt" viewBox="0 0 178.000000 178.000000"
 preserveAspectRatio="xMidYMid meet">

<g transform="translate(0.000000,178.000000) scale(0.100000,-0.100000)"
fill="#000000" stroke="none">
<path d="M765 1760 c-586 -93 -918 -709 -670 -1246 141 -306 451 -504 791
-504 263 0 471 90 649 282 304 327 316 810 29 1163 -103 126 -290 242 -459
285 -93 24 -254 33 -340 20z m302 -150 c366 -87 611 -441 564 -811 -35 -269
-209 -498 -458 -603 -66 -28 -208 -56 -280 -56 -341 0 -645 239 -727 573 -24
97 -23 260 3 360 85 329 376 555 716 556 67 1 128 -6 182 -19z"/>
<path d="M410 1175 l0 -205 50 0 50 0 0 205 0 205 -50 0 -50 0 0 -205z"/>
<path d="M560 1175 l0 -205 50 0 50 0 0 205 0 205 -50 0 -50 0 0 -205z"/>
<path d="M720 1175 l0 -205 45 0 45 0 0 -80 0 -80 -200 0 -200 0 0 -50 0 -50
205 0 205 0 0 45 0 45 85 0 85 0 0 -200 0 -200 200 0 200 0 0 200 0 200 -45 0
-44 0 -3 -152 -3 -153 -102 -3 -103 -3 0 156 0 155 -50 0 -50 0 0 85 0 85 205
0 205 0 0 50 0 50 -205 0 -205 0 0 -45 0 -45 -85 0 -85 0 0 200 0 200 -50 0
-50 0 0 -205z"/>
<path d="M990 1330 l0 -50 205 0 205 0 0 50 0 50 -205 0 -205 0 0 -50z"/>
<path d="M990 1180 l0 -50 205 0 205 0 0 50 0 50 -205 0 -205 0 0 -50z"/>
<path d="M410 450 l0 -50 205 0 205 0 0 50 0 50 -205 0 -205 0 0 -50z"/>
</g>
</svg>
